<?xml version="1.0" encoding="UTF-8"?>
<svg id="Layer_1" xmlns="http://www.w3.org/2000/svg" version="1.1" viewBox="0 0 19.48 10.95">
  <!-- Generator: Adobe Illustrator 30.6.0, SVG Export Plug-In . SVG Version: 2.1.4 Build 109)  -->
  <path d="M.95,10.95c-.39,0-.67-.17-.84-.52-.17-.35-.14-.67.09-.98l3.88-5.15c.09-.13.2-.22.34-.28s.27-.09.41-.09.28.03.41.09.25.16.34.28l3.58,4.78h7.5l-4.93-6.55-1.83,2.41c-.19.25-.41.38-.66.39s-.46-.06-.66-.2-.32-.33-.38-.58c-.06-.24,0-.49.19-.74L10.98.38c.09-.13.2-.22.34-.28s.27-.09.41-.09.28.03.41.09.25.16.34.28l6.8,9.08c.23.31.26.64.09.98-.17.35-.45.52-.84.52H.95ZM9.15,9.08h7.5-7.78,1.61-1.33ZM2.84,9.08h3.98l-1.99-2.65-1.99,2.65ZM2.84,9.08h3.98-3.98Z" fill="#00aba9"/>
</svg>